<?xml version="1.0" standalone="no"?>

<!DOCTYPE svg PUBLIC "-//W3C//DTD SVG 1.1//EN" 
"http://www.w3.org/Graphics/SVG/1.1/DTD/svg11.dtd">
 
<svg width="100%" height="100%" version="1.1"
xmlns="http://www.w3.org/2000/svg">
 <g transform="translate(0  0)">
    <rect x="0" y="0" width="75" height="41"  fill="none" stroke="#010101" stroke-width="1" />
<g transform="translate(46 -40) rotate(90)"> 
 <polygon fill="none" stroke="#010101" stroke-miterlimit="10" points= "40,40 46,34 52,40 46,46  "></polygon></g> 
<g transform="translate(46 -28) rotate(90)"> 
 <polygon fill="none" stroke="#010101" stroke-miterlimit="10" points= "40,40 46,34 52,40 46,46  "></polygon></g> 
<g transform="translate(-40 -10) rotate(0)"> 
 <polygon fill="none" stroke="#010101" stroke-miterlimit="10" points= "40,40 46,34 52,40 46,46  "></polygon></g> 
<g transform="translate(52 -22) rotate(90)"> 
 <polygon fill="none" stroke="#010101" stroke-miterlimit="10" points= "40,40 46,34 52,40 46,46  "></polygon></g> 
<g transform="translate(-27.9997 58) rotate(270)"> 
 <polygon fill="none" stroke="#010101" stroke-miterlimit="10" points= "40,40 46,34 52,40 46,46  "></polygon></g> 
<g transform="translate(53 -11) rotate(90)"> 
 <polygon fill="none" stroke="#010101" stroke-miterlimit="10" points= "40,40 46,34 52,40 46,46  "></polygon></g> 
<g transform="translate(-28 -22) rotate(0)"> 
 <polygon fill="none" stroke="#010101" stroke-miterlimit="10" points= "40,40 46,34 52,40 46,46  "></polygon></g> 
<g transform="translate(43.9998 7) rotate(90)"> 
 <polygon fill="none" stroke="#010101" stroke-miterlimit="10" points= "20,20 22,20 22,23 32,23 32,20 34,20 34,25 20,25  "></polygon></g> 
<g transform="translate(-12.3848 9.8994) rotate(315)"> 
 <polygon fill="none" stroke="#010101" stroke-miterlimit="10" points= "20,20 22,20 22,23 32,23 32,20 34,20 34,25 20,25  "></polygon></g> 
<g transform="translate(-9.7488 23.4645) rotate(315)"> 
 <polygon fill="none" stroke="#010101" stroke-miterlimit="10" points= "20,20 22,20 22,23 32,23 32,20 34,20 34,25 20,25  "></polygon></g> 
<g transform="translate(48.9998 7) rotate(90)"> 
 <polygon fill="none" stroke="#010101" stroke-miterlimit="10" points= "20,20 22,20 22,23 32,23 32,20 34,20 34,25 20,25  "></polygon></g> 
<g transform="translate(61.1542 7.0711) rotate(135)"> 
 <polygon fill="none" stroke="#010101" stroke-miterlimit="10" points= "20,20 22,20 22,23 32,23 32,20 34,20 34,25 20,25  "></polygon></g> 
<g transform="translate(28.8197 -21.4054) rotate(45)"> 
 <polygon fill="none" stroke="#010101" stroke-miterlimit="10" points= "20,20 22,20 22,23 32,23 32,20 34,20 34,25 20,25  "></polygon></g> 
<g transform="translate(33.3846 63.7695) rotate(225)"> 
 <polygon fill="none" stroke="#010101" stroke-miterlimit="10" points= "20,20 22,20 22,23 32,23 32,20 34,20 34,25 20,25  "></polygon></g> 
<g transform="translate(-0.9706 37.3137) rotate(315)"> 
 <polygon fill="none" stroke="#010101" stroke-miterlimit="10" points= "20,20 22,20 22,23 32,23 32,20 34,20 34,25 20,25  "></polygon></g> 
<g transform="translate(32.87 -28.2842) rotate(45)"> 
 <polygon fill="none" stroke="#010101" stroke-miterlimit="10" points= "20,20 22,20 22,23 32,23 32,20 34,20 34,25 20,25  "></polygon></g> 
<g transform="translate(64.2841 45.3137) rotate(180)"> 
 <polygon fill="none" stroke="#010101" stroke-miterlimit="10" points= "20,20 22,20 22,23 32,23 32,20 34,20 34,25 20,25  "></polygon></g> 
<g transform="translate(75.9531 31.1006) rotate(135)"> 
 <polygon fill="none" stroke="#010101" stroke-miterlimit="10" points= "20,20 22,20 22,23 32,23 32,20 34,20 34,25 20,25  "></polygon></g> 
<g transform="translate(19.7694 40.3138) rotate(270)"> 
 <polygon fill="none" stroke="#010101" stroke-miterlimit="10" points= "20,20 22,20 22,23 32,23 32,20 34,20 34,25 20,25  "></polygon></g> 
<g transform="translate(14.2841 -19.3434) rotate(0)"> 
 <polygon fill="none" stroke="#010101" stroke-miterlimit="10" points= "20,20 22,20 22,23 32,23 32,20 34,20 34,25 20,25  "></polygon></g> 
<g transform="translate(24.669 60.1007) rotate(270)"> 
 <polygon fill="none" stroke="#010101" stroke-miterlimit="10" points= "20,20 22,20 22,23 32,23 32,20 34,20 34,25 20,25  "></polygon></g> 
<g transform="translate(78.2841 46.1006) rotate(180)"> 
 <polygon fill="none" stroke="#010101" stroke-miterlimit="10" points= "20,20 22,20 22,23 32,23 32,20 34,20 34,25 20,25  "></polygon></g> 
<g transform="translate(60.8295 81.4104) rotate(196.363636363636)"> 
 <polygon fill="none" stroke="#010101" stroke-miterlimit="10" points= "60,60 66,60 66,58 67,58 71,62 71,64 68,64 68,61 62,61 62,64 60,64  "></polygon></g> 
<g transform="translate(-38.1443 -0.301) rotate(327.272727272727)"> 
 <polygon fill="none" stroke="#010101" stroke-miterlimit="10" points= "60,60 66,60 66,58 67,58 71,62 71,64 68,64 68,61 62,61 62,64 60,64  "></polygon></g> 
<g transform="translate(130.9241 49.1999) rotate(163.636363636364)"> 
 <polygon fill="none" stroke="#010101" stroke-miterlimit="10" points= "60,60 66,60 66,58 67,58 71,62 71,64 68,64 68,61 62,61 62,64 60,64  "></polygon></g> 
<g transform="translate(33.5986 -82.9137) rotate(32.7272727272727)"> 
 <polygon fill="none" stroke="#010101" stroke-miterlimit="10" points= "60,60 66,60 66,58 67,58 71,62 71,64 68,64 68,61 62,61 62,64 60,64  "></polygon></g> 
<g transform="translate(143.2567 7.818) rotate(130.909090909091)"> 
 <polygon fill="none" stroke="#010101" stroke-miterlimit="10" points= "60,60 66,60 66,58 67,58 71,62 71,64 68,64 68,61 62,61 62,64 60,64  "></polygon></g> 
<g transform="translate(123.0333 -20.4538) rotate(98.1818181818182)"> 
 <polygon fill="none" stroke="#010101" stroke-miterlimit="10" points= "60,60 66,60 66,58 67,58 71,62 71,64 68,64 68,61 62,61 62,64 60,64  "></polygon></g> 
<g transform="translate(135.8036 67.2102) rotate(163.636363636364)"> 
 <polygon fill="none" stroke="#010101" stroke-miterlimit="10" points= "60,60 66,60 66,58 67,58 71,62 71,64 68,64 68,61 62,61 62,64 60,64  "></polygon></g> 
<g transform="translate(-24.2821 65.2685) rotate(294.545454545455)"> 
 <polygon fill="none" stroke="#010101" stroke-miterlimit="10" points= "60,60 66,60 66,58 67,58 71,62 71,64 68,64 68,61 62,61 62,64 60,64  "></polygon></g> 
<g transform="translate(-3.7974 -42.8992) rotate(0)"> 
 <polygon fill="none" stroke="#010101" stroke-miterlimit="10" points= "60,60 66,60 66,58 67,58 71,62 71,64 68,64 68,61 62,61 62,64 60,64  "></polygon></g> 
<g transform="translate(173.1506 40.2438) rotate(150)"> 
 <polygon fill="none" stroke="#010101" stroke-miterlimit="10" points= "80,80 82,80 82,78 84,78 84,80 86,80 86,82 84,82 84,84 82,84 82,82 80,82  "></polygon></g> 
<g transform="translate(89.6157 -79.6627) rotate(60)"> 
 <polygon fill="none" stroke="#010101" stroke-miterlimit="10" points= "80,80 82,80 82,78 84,78 84,80 86,80 86,82 84,82 84,84 82,84 82,82 80,82  "></polygon></g> 
<g transform="translate(30.402 -108.5499) rotate(30)"> 
 <polygon fill="none" stroke="#010101" stroke-miterlimit="10" points= "80,80 82,80 82,78 84,78 84,80 86,80 86,82 84,82 84,84 82,84 82,82 80,82  "></polygon></g> 
<g transform="translate(176.0907 52.1148) rotate(150)"> 
 <polygon fill="none" stroke="#010101" stroke-miterlimit="10" points= "80,80 82,80 82,78 84,78 84,80 86,80 86,82 84,82 84,84 82,84 82,82 80,82  "></polygon></g> 
<g transform="translate(-48.3922 9.2538) rotate(330)"> 
 <polygon fill="none" stroke="#010101" stroke-miterlimit="10" points= "80,80 82,80 82,78 84,78 84,80 86,80 86,82 84,82 84,84 82,84 82,82 80,82  "></polygon></g> 
<g transform="translate(-39.9375 120.4645) rotate(270)"> 
 <polygon fill="none" stroke="#010101" stroke-miterlimit="10" points= "80,80 82,80 82,78 84,78 84,80 86,80 86,82 84,82 84,84 82,84 82,82 80,82  "></polygon></g> 
<g transform="translate(-17.9847 -72.7701) rotate(0)"> 
 <polygon fill="none" stroke="#010101" stroke-miterlimit="10" points= "80,80 82,80 82,78 84,78 84,80 86,80 86,82 84,82 84,84 82,84 82,82 80,82  "></polygon></g> 
<g transform="translate(-15.0643 112.3513) rotate(270)"> 
 <polygon fill="none" stroke="#010101" stroke-miterlimit="10" points= "80,80 82,80 82,78 84,78 84,80 86,80 86,82 84,82 84,84 82,84 82,82 80,82  "></polygon></g> 
<g transform="translate(-14.6682 97.2299) rotate(270)"> 
 <polygon fill="none" stroke="#010101" stroke-miterlimit="10" points= "80,80 82,80 82,78 84,78 84,80 86,80 86,82 84,82 84,84 82,84 82,82 80,82  "></polygon></g> 
<g transform="translate(-15.1199 -76.7701) rotate(0)"> 
 <polygon fill="none" stroke="#010101" stroke-miterlimit="10" points= "80,80 82,80 82,78 84,78 84,80 86,80 86,82 84,82 84,84 82,84 82,82 80,82  "></polygon></g> 
<g transform="translate(-13.0643 117.0073) rotate(270)"> 
 <polygon fill="none" stroke="#010101" stroke-miterlimit="10" points= "80,80 82,80 82,78 84,78 84,80 86,80 86,82 84,82 84,84 82,84 82,82 80,82  "></polygon></g> 
<g transform="translate(37.9216 -86.3948) rotate(30)"> 
 <polygon fill="none" stroke="#010101" stroke-miterlimit="10" points= "80,80 82,80 82,78 84,78 84,80 86,80 86,82 84,82 84,84 82,84 82,82 80,82  "></polygon></g> 
</g> 
</svg>